HIERARCHY
ROOT Hips
{
	OFFSET 0.00 0.00 0.00
	CHANNELS 6 Xposition Yposition Zposition Xrotation Yrotation Zrotation
	JOINT Spine
	{
		OFFSET 0.00000 1.15266 1.72900
		CHANNELS 3 Xrotation Yrotation Zrotation
		JOINT Spine1
		{
			OFFSET 0.00000 0.40032 2.27031
			CHANNELS 3 Xrotation Yrotation Zrotation
			JOINT Spine2
			{
				OFFSET 0.00000 0.20092 2.29656
				CHANNELS 3 Xrotation Yrotation Zrotation
				JOINT Spine3
				{
					OFFSET 0.00000 0.00000 2.30533
					CHANNELS 3 Xrotation Yrotation Zrotation
					JOINT Neck
					{
						OFFSET 0.00000 -0.86449 6.05149
						CHANNELS 3 Xrotation Yrotation Zrotation
						JOINT Head
						{
							OFFSET 0.00000 -0.55043 3.12167
							CHANNELS 3 Xrotation Yrotation Zrotation
							End Site
							{
								OFFSET 0.00000 0.00000 3.73175
							}
						}
					}
					JOINT RightShoulder
					{
						OFFSET -0.78828 -1.31380 4.25672
						CHANNELS 3 Xrotation Yrotation Zrotation
						JOINT RightArm
						{
							OFFSET -3.91513 0.00000 0.00000
							CHANNELS 3 Xrotation Yrotation Zrotation
							JOINT RightForeArm
							{
								OFFSET -6.91491 0.00000 0.00000
								CHANNELS 3 Xrotation Yrotation Zrotation
								JOINT RightHand
								{
									OFFSET -6.09622 0.00000 0.00000
									CHANNELS 3 Xrotation Yrotation Zrotation
									JOINT RightHandEnd
									{
										OFFSET -1.74995 0.00000 0.00000
										CHANNELS 3 Xrotation Yrotation Zrotation
										End Site
										{
											OFFSET -1.74995 0.00000 0.00000
										}
									}
									JOINT RightHandThumb1
									{
										OFFSET -0.69998 -1.16663 -0.46665
										CHANNELS 3 Yrotation Xrotation Zrotation
										End Site
										{
											OFFSET -1.69032 -0.45292 0.00000
										}
									}
								}
							}
						}
					}
					JOINT LeftShoulder
					{
						OFFSET 0.78828 -1.31380 4.25672
						CHANNELS 3 Xrotation Yrotation Zrotation
						JOINT LeftArm
						{
							OFFSET 3.91513 0.00000 0.00000
							CHANNELS 3 Xrotation Yrotation Zrotation
							JOINT LeftForeArm
							{
								OFFSET 6.91491 0.00000 0.00000
								CHANNELS 3 Xrotation Yrotation Zrotation
								JOINT LeftHand
								{
									OFFSET 6.09622 0.00000 0.00000
									CHANNELS 3 Xrotation Yrotation Zrotation
									JOINT LeftHandEnd
									{
										OFFSET 1.74995 0.00000 0.00000
										CHANNELS 3 Xrotation Yrotation Zrotation
										End Site
										{
											OFFSET 1.74995 0.00000 0.00000
										}
									}
									JOINT LeftHandThumb1
									{
										OFFSET 0.69998 -1.16663 -0.46665
										CHANNELS 3 Yrotation Xrotation Zrotation
										End Site
										{
											OFFSET 1.69032 -0.45292 0.00000
										}
									}
								}
							}
						}
					}
				}
			}
		}
	}
	JOINT RightUpLeg
	{
		OFFSET -2.33857 0.00000 -0.68318
		CHANNELS 3 Xrotation Yrotation Zrotation
		JOINT RightLeg
		{
			OFFSET 0.00000 0.00000 -10.74496
			CHANNELS 3 Xrotation Yrotation Zrotation
			JOINT RightFoot
			{
				OFFSET 0.00000 0.00000 -10.93085
				CHANNELS 3 Xrotation Yrotation Zrotation
				JOINT RightToeBase
				{
					OFFSET 0.00000 -4.08727 -1.48765
					CHANNELS 3 Xrotation Yrotation Zrotation
					End Site
					{
						OFFSET 0.00000 -1.89187 -0.00000
					}
				}
			}
		}
	}
	JOINT LeftUpLeg
	{
		OFFSET 2.33857 0.00000 -0.68318
		CHANNELS 3 Xrotation Yrotation Zrotation
		JOINT LeftLeg
		{
			OFFSET 0.00000 0.00000 -10.74496
			CHANNELS 3 Xrotation Yrotation Zrotation
			JOINT LeftFoot
			{
				OFFSET 0.00000 0.00000 -10.93085
				CHANNELS 3 Xrotation Yrotation Zrotation
				JOINT LeftToeBase
				{
					OFFSET 0.00000 -4.08727 -1.48765
					CHANNELS 3 Xrotation Yrotation Zrotation
					End Site
					{
						OFFSET 0.00000 -1.89187 -0.00000
					}
				}
			}
		}
	}
}
MOTION
Frames: 12
Frame Time:	0.0333333
 -2.2206 82.4277 23.2712 0.4160 -0.5687 95.3378 9.3880 3.9065 -1.6600 2.7125 0.4007 0.0541 4.0509 -0.8599 1.4684 -3.4638 -1.5170 0.9725 -11.3711 -1.6642 -2.9971 4.6241 -5.5207 -4.1643 7.9515 -17.4453 1.4168 2.8623 -56.2271 -3.7220 -0.0000 0.0001 71.3039 -0.7242 28.2642 11.7715 0.0000 0.0000 -0.0000 0.0000 -0.0000 -0.0000 8.5004 10.7791 2.0168 24.0303 31.9446 -30.5532 -0.0000 -0.0000 -24.1269 -15.0519 -58.9856 -31.8507 -0.0000 0.0000 0.0000 -0.0000 0.0000 -0.0000 -39.0281 -2.7869 -5.7509 97.7526 0.0000 0.0000 -16.3344 5.0214 -10.5282 -3.7692 0.0000 -0.0000 -18.4254 -10.0779 11.4356 39.7826 0.0000 0.0000 -18.8714 7.4341 6.5569 2.1446 0.0000 0.0000
 -2.4270 82.8184 23.3032 0.4848 -0.9310 88.1921 9.4489 4.2774 -1.7830 2.6594 0.2561 0.0597 4.5630 -1.2087 2.0291 -3.3524 -1.7633 1.1434 -12.0859 -1.4945 -1.9645 4.9893 -5.5306 -3.0197 7.2556 -17.1028 2.1237 0.4292 -55.4002 -5.6875 -0.0000 0.0001 72.2527 -1.4251 27.8788 11.2764 0.0000 0.0000 -0.0000 0.0000 -0.0000 -0.0000 8.3163 9.9156 1.1948 26.9108 34.7466 -31.7044 -0.0000 -0.0000 -24.3053 -14.4302 -58.4962 -30.1522 0.0000 -0.0000 0.0000 -0.0000 -0.0000 0.0000 -40.1985 -3.6532 -5.7048 99.6983 0.0000 0.0000 -16.1699 5.3560 -10.6465 -3.9238 0.0000 -0.0000 -16.5384 -8.3055 11.4283 38.8153 0.0000 0.0000 -20.3382 3.3685 12.4495 1.3638 0.0000 0.0000
 -2.6353 83.0612 23.2346 0.3543 -1.5388 83.0619 9.7778 5.0208 -1.9798 2.5778 0.4766 0.0587 5.5269 -1.7620 1.5518 -3.1054 -2.4668 1.3207 -13.0607 -2.4254 -2.3833 5.5483 -5.4352 -2.4802 6.1470 -17.1121 2.3007 -1.3017 -54.8167 -7.0769 -0.0000 0.0001 72.8055 -2.3372 27.6876 10.6979 0.0000 -0.0000 0.0000 -0.0000 -0.0000 0.0000 9.2169 7.6627 -0.9249 33.2821 35.8827 -37.0075 -0.0000 -0.0000 -24.0034 -13.9372 -57.1917 -28.3733 0.0000 -0.0000 0.0000 0.0000 -0.0000 0.0000 -40.3407 -5.5121 -5.3971 100.9229 0.0000 0.0000 -16.0056 7.0025 -11.0803 -4.0527 0.0000 -0.0000 -15.8215 -7.8290 13.1545 39.5958 0.0000 0.0000 -21.6060 -0.1786 15.5114 0.9012 0.0000 0.0000
 -2.8654 83.1498 23.1475 0.2792 -2.0372 80.6497 10.1934 6.1828 -2.2754 2.4817 1.0886 0.0025 6.6230 -2.4317 -0.8802 -2.7025 -3.4140 1.1312 -13.7241 -4.8932 -4.4401 6.0887 -5.5841 -2.6885 4.9117 -18.1738 1.6495 -2.1333 -54.8005 -7.2760 -0.0000 0.0001 72.8183 -2.6820 27.5338 10.1404 0.0000 0.0000 -0.0000 0.0000 -0.0000 -0.0000 10.6141 5.1899 -3.2281 40.4745 32.6490 -44.8009 -0.0000 -0.0000 -22.5537 -14.7781 -54.6923 -28.0448 -0.0000 0.0000 -0.0000 0.0000 0.0000 0.0000 -39.6841 -7.4057 -5.6240 101.0229 0.0000 0.0000 -16.0742 9.1121 -12.0852 -4.4737 0.0000 -0.0000 -15.8211 -9.2969 17.9079 41.0784 0.0000 0.0000 -22.3224 -1.3262 13.1072 0.7496 0.0000 0.0000
 -3.1011 83.1456 23.0844 0.2853 -1.9673 80.2666 10.4419 7.2378 -2.6159 2.4338 1.8144 -0.1190 7.3632 -3.1227 -4.7311 -2.1934 -4.2132 0.5335 -13.6518 -8.1089 -7.7450 6.8638 -6.4124 -4.0010 3.7233 -19.8436 -0.0931 -1.9587 -55.6201 -6.9024 -0.0000 0.0001 72.9805 -2.2333 27.1393 9.3630 0.0000 0.0000 0.0000 0.0000 0.0000 0.0000 11.6329 3.3317 -4.9698 44.4988 27.2352 -51.2054 -0.0000 -0.0000 -20.3539 -16.3750 -51.8887 -29.3209 -0.0000 -0.0000 -0.0000 0.0000 0.0000 0.0000 -39.2381 -8.9034 -6.3273 100.6082 0.0000 0.0000 -16.5014 9.7502 -12.9290 -5.0315 0.0000 -0.0000 -16.2232 -11.5549 23.2155 42.1047 0.0000 0.0000 -22.2946 -1.1497 7.9713 0.7386 0.0000 0.0000
 -3.3298 83.1075 23.0541 0.1372 -1.2323 80.1096 10.5308 7.8983 -2.9494 2.4520 2.3583 -0.2582 7.6369 -3.7943 -8.4023 -1.7517 -4.8426 -0.0799 -13.0828 -11.0854 -11.5526 8.1018 -7.7346 -6.4364 2.7949 -21.3542 -2.4307 -1.0938 -56.3789 -7.1537 -0.0000 0.0001 73.9102 -1.6905 26.7502 8.6700 0.0000 0.0000 -0.0000 0.0000 -0.0000 -0.0000 11.7985 2.1487 -6.3135 44.9379 23.8786 -55.6175 -0.0000 -0.0000 -18.4664 -17.7314 -50.3230 -31.2359 0.0000 -0.0000 -0.0000 0.0000 0.0000 0.0000 -39.7263 -10.5187 -6.8247 100.8915 0.0000 0.0000 -17.3807 8.6228 -13.3370 -5.3803 0.0000 -0.0000 -17.1190 -13.3781 26.6179 42.5030 0.0000 0.0000 -22.0936 -1.1592 4.7598 0.9074 0.0000 0.0000
 -3.5497 83.0518 23.0722 -0.3593 -0.2038 78.6370 10.7159 8.2748 -3.2444 2.5263 2.6513 -0.3623 7.6142 -4.4273 -10.8580 -1.4480 -5.4825 -0.3913 -12.2791 -13.6019 -15.0622 9.5358 -8.9700 -9.0848 2.4328 -22.5041 -4.4683 -0.0633 -56.1801 -7.9928 -0.0000 0.0001 75.0126 -1.7212 26.7603 8.6809 -0.0000 -0.0000 -0.0000 0.0000 0.0000 -0.0000 11.3033 1.2818 -7.3425 42.8955 24.0869 -58.6940 -0.0000 -0.0000 -18.4141 -17.4623 -50.2201 -32.0734 -0.0000 0.0000 -0.0000 0.0000 0.0000 0.0000 -40.9228 -12.7313 -6.9452 102.3248 0.0000 0.0000 -18.4268 7.5583 -14.0627 -5.4692 0.0000 -0.0000 -18.0731 -14.8845 28.3260 42.5166 0.0000 0.0000 -22.0833 -1.5166 4.5292 1.1616 0.0000 0.0000
 -3.7497 82.9919 23.1627 -1.0804 0.7834 75.3946 11.0835 8.4862 -3.4875 2.6409 2.7887 -0.4368 7.4873 -5.0171 -12.3300 -1.1708 -6.0736 -0.4857 -11.0464 -15.7444 -17.3137 10.8294 -9.8085 -10.8391 2.6662 -23.3064 -5.8396 1.1755 -55.2655 -7.9759 -0.0000 0.0001 75.1790 -1.9576 26.9217 9.0266 -0.0000 0.0000 -0.0000 -0.0000 -0.0000 -0.0000 10.5947 0.4716 -7.8201 39.7817 26.3333 -60.2391 -0.0000 -0.0000 -20.9421 -15.7099 -50.7643 -31.3606 -0.0000 -0.0000 -0.0000 0.0000 0.0000 -0.0000 -42.2452 -15.0801 -6.9834 104.2966 0.0000 0.0000 -19.1701 8.2147 -15.4728 -5.4316 0.0000 -0.0000 -18.1577 -16.3517 29.8721 41.7433 0.0000 0.0000 -21.8188 -2.4737 5.6218 1.0102 0.0000 0.0000
 -3.9044 82.9609 23.3420 -1.6547 1.7433 70.5511 11.4182 8.6605 -3.7136 2.7222 2.7700 -0.5210 7.4164 -5.6431 -13.2824 -0.8553 -6.4183 -0.5460 -9.2276 -17.1974 -17.6306 12.0228 -10.1994 -11.2487 3.0529 -23.6409 -6.6017 2.6105 -54.0963 -6.4419 -0.0000 0.0001 74.1024 -1.3370 26.7815 8.5918 0.0000 -0.0000 0.0000 -0.0000 0.0000 0.0000 9.8584 -0.1747 -7.5385 36.9404 28.4341 -60.2055 -0.0000 -0.0000 -24.7190 -14.4947 -51.5026 -30.8401 0.0000 0.0000 0.0000 0.0000 0.0000 0.0000 -43.5026 -16.5955 -6.7359 105.9285 0.0000 0.0000 -19.4927 10.0110 -16.6357 -5.4152 0.0000 -0.0000 -16.9719 -17.1263 31.5639 39.4301 0.0000 0.0000 -21.0536 -4.2881 8.4170 -0.0543 0.0000 -0.0000
 -3.9784 82.9604 23.6004 -2.0759 2.8274 64.3037 11.5542 8.6391 -3.8919 2.7408 2.5680 -0.5785 7.3917 -6.3703 -13.6129 -0.5434 -6.5135 -0.5221 -7.0052 -17.4771 -16.2152 13.2509 -10.0752 -10.6147 3.1569 -23.3834 -6.7957 3.5530 -52.8769 -4.3038 -0.0000 0.0001 72.1908 0.3534 26.4943 7.0191 -0.0000 0.0000 -0.0000 -0.0000 -0.0000 -0.0000 8.9879 -0.4112 -6.5001 35.4039 29.6671 -59.5321 -0.0000 -0.0000 -27.4754 -14.5932 -52.5489 -31.6202 -0.0000 0.0000 -0.0000 0.0000 0.0000 -0.0000 -44.8243 -17.0536 -6.0296 106.5652 0.0000 0.0000 -19.5760 11.6445 -16.6387 -5.4261 0.0000 -0.0000 -14.8181 -16.9997 32.7111 35.7622 0.0000 0.0000 -20.4338 -5.8003 13.9021 -1.8757 0.0000 -0.0000
 -3.9475 82.9575 23.8887 -2.3743 3.9800 57.2550 11.5975 8.2745 -3.9259 2.7780 2.2377 -0.6236 7.2692 -7.0569 -13.1714 -0.2583 -6.4724 -0.3729 -4.6499 -16.5611 -13.8998 14.3809 -9.5684 -9.5787 3.0451 -22.2931 -6.4416 3.3110 -52.4209 -2.6480 -0.0000 0.0001 69.8223 1.6824 26.3677 4.9682 0.0000 -0.0000 -0.0000 -0.0000 -0.0000 -0.0000 7.8581 -0.3587 -4.9911 35.7433 30.7172 -59.3526 -0.0000 -0.0000 -28.0013 -14.9285 -53.3470 -32.6182 0.0000 0.0000 -0.0000 0.0000 0.0000 0.0000 -46.3508 -16.3692 -5.4609 105.9817 0.0000 0.0000 -19.4964 12.5719 -15.9681 -5.4059 0.0000 -0.0000 -12.0015 -16.2321 33.2065 31.5752 0.0000 0.0000 -21.1686 -5.8957 18.7993 -3.8931 0.0000 -0.0000
 -3.8214 82.9209 24.1232 -2.5201 4.9611 50.5101 11.8156 7.5380 -3.8730 2.9061 1.8793 -0.6598 7.0531 -7.5233 -12.2056 -0.0173 -6.3453 -0.1525 -2.5428 -14.8449 -11.5977 15.2041 -9.1243 -8.5929 2.9690 -20.0816 -5.6800 1.7009 -53.7501 -2.1935 -0.0000 0.0001 67.4340 0.7901 26.1138 3.1349 0.0000 -0.0000 0.0000 -0.0000 0.0000 0.0000 6.9102 -0.2368 -3.3501 37.2127 32.2172 -59.8425 -0.0000 -0.0000 -27.0536 -14.8115 -53.1713 -32.7127 0.0000 0.0000 -0.0000 -0.0000 0.0000 -0.0000 -48.0690 -14.2417 -5.9538 104.2303 0.0000 0.0000 -19.4622 12.5597 -15.6705 -5.1595 0.0000 -0.0000 -9.0409 -14.7640 32.1113 27.5634 0.0000 0.0000 -22.8535 -4.9804 19.3284 -5.7522 0.0000 -0.0000
